<svg width="40" height="40" viewBox="0 0 40 40" fill="none" xmlns="http://www.w3.org/2000/svg">
<path d="M39.8712 11.8062C39.8467 10.1275 39.5358 8.46214 38.9405 6.89212C37.8987 4.21111 35.7774 2.09114 33.092 1.05333C31.5393 0.470119 29.8978 0.157446 28.2363 0.121965C26.0995 0.0266106 25.422 0 19.9978 0C14.5735 0 13.8783 1.48698e-07 11.757 0.121965C10.0977 0.157446 8.45624 0.470119 6.9036 1.05333C4.21813 2.09114 2.09462 4.21111 1.05509 6.89212C0.470902 8.44218 0.155486 10.0809 0.124389 11.7374C0.028876 13.8729 0 14.5493 0 19.9645C0 25.3798 -1.65495e-08 26.0716 0.124389 28.1916C0.157708 29.8503 0.470902 31.4869 1.05509 33.0414C2.09685 35.7201 4.21813 37.8401 6.90582 38.8779C8.4518 39.4811 10.0933 39.8226 11.7592 39.8758C13.8983 39.9712 14.5757 40 20 40C25.4243 40 26.1195 40 28.2408 39.8758C29.9 39.8426 31.5415 39.5299 33.0964 38.9467C35.7819 37.9066 37.9032 35.7867 38.9449 33.1079C39.5291 31.5556 39.8423 29.9191 39.8756 28.2581C39.9711 26.1249 40 25.4485 40 20.031C39.9956 14.6158 39.9956 13.9284 39.8712 11.8062ZM19.9845 30.2051C14.3114 30.2051 9.71568 25.617 9.71568 19.9534C9.71568 14.2898 14.3114 9.70174 19.9845 9.70174C25.653 9.70174 30.2532 14.2898 30.2532 19.9534C30.2532 25.617 25.653 30.2051 19.9845 30.2051ZM30.6619 11.7131C29.3359 11.7131 28.2674 10.6442 28.2674 9.32254C28.2674 8.00089 29.3359 6.93203 30.6619 6.93203C31.9836 6.93203 33.0542 8.00089 33.0542 9.32254C33.0542 10.6442 31.9836 11.7131 30.6619 11.7131Z" fill="white"/>
<path d="M19.9848 26.6105C23.6688 26.6105 26.6552 23.6291 26.6552 19.9513C26.6552 16.2735 23.6688 13.292 19.9848 13.292C16.3009 13.292 13.3145 16.2735 13.3145 19.9513C13.3145 23.6291 16.3009 26.6105 19.9848 26.6105Z" fill="white"/>
</svg>
