<svg width="40" height="40" viewBox="0 0 40 40" fill="none" xmlns="http://www.w3.org/2000/svg">
<path d="M26.1124 25.7369L25.2014 26.7226C25.2014 26.7226 23.0362 29.0655 17.1262 22.6705C11.2162 16.2755 13.3814 13.9326 13.3814 13.9326L13.955 13.312C15.3682 11.7829 15.5014 9.328 14.2685 7.53582L11.7465 3.86976C10.2205 1.65158 7.27191 1.35856 5.52289 3.25109L2.38369 6.6479C1.51646 7.5863 0.935296 8.80276 1.00578 10.1522C1.18608 13.6046 2.62141 21.0324 10.6307 29.699C19.1242 38.8894 27.0936 39.2547 30.3526 38.9242C31.3834 38.8195 32.2798 38.2483 33.0022 37.4666L35.8434 34.3923C37.7612 32.3172 37.2204 28.7596 34.7666 27.308L30.9456 25.0475C29.3344 24.0944 27.3716 24.3743 26.1124 25.7369Z" fill="white"/>
<path d="M23.0992 3.13309C23.2095 2.45161 23.8537 1.98933 24.5352 2.09965C24.5773 2.10773 24.7132 2.1331 24.7842 2.14893C24.9265 2.18061 25.1248 2.22936 25.3722 2.30141C25.8668 2.44548 26.5578 2.68283 27.3872 3.06305C29.0477 3.82431 31.2573 5.15598 33.5503 7.44898C35.8433 9.74198 37.175 11.9517 37.9362 13.6121C38.3165 14.4415 38.5538 15.1325 38.6978 15.6271C38.7698 15.8745 38.8187 16.0729 38.8503 16.2151C38.8662 16.2862 38.8778 16.3433 38.8858 16.3855L38.8955 16.4375C39.0057 17.1189 38.5477 17.7899 37.8662 17.9002C37.1867 18.0102 36.5465 17.55 36.4335 16.8719C36.43 16.8535 36.4203 16.8047 36.4102 16.7585C36.3895 16.6662 36.354 16.5198 36.2977 16.3262C36.1848 15.939 35.989 15.3635 35.6637 14.654C35.014 13.2368 33.8457 11.2799 31.7825 9.21674C29.7195 7.15364 27.7625 5.98533 26.3453 5.33561C25.6358 5.01034 25.0603 4.81446 24.673 4.70166C24.4795 4.64528 24.2362 4.58943 24.1438 4.56888C23.4655 4.45583 22.9892 3.81263 23.0992 3.13309Z" fill="white"/>
<path fill-rule="evenodd" clip-rule="evenodd" d="M23.4762 8.88215C23.6658 8.21835 24.3577 7.83398 25.0215 8.02363L24.6782 9.22555C25.0215 8.02363 25.0215 8.02363 25.0215 8.02363L25.024 8.02433L25.0265 8.02507L25.032 8.02668L25.045 8.03055L25.078 8.04082C25.103 8.04885 25.1345 8.05932 25.1718 8.0726C25.2467 8.09917 25.3457 8.13693 25.467 8.18893C25.7098 8.293 26.0415 8.4537 26.4492 8.69488C27.2648 9.17768 28.3785 9.97965 29.6868 11.2879C30.9952 12.5962 31.797 13.7099 32.2798 14.5257C32.521 14.9332 32.6817 15.2649 32.7858 15.5078C32.8378 15.6291 32.8757 15.728 32.9022 15.8029C32.9155 15.8403 32.9258 15.8717 32.934 15.8968L32.9442 15.9298L32.948 15.9427L32.9497 15.9483L32.9503 15.9508C32.9503 15.9508 32.9512 15.9532 31.7492 16.2966L32.9512 15.9532C33.1408 16.617 32.7563 17.3088 32.0927 17.4985C31.4345 17.6865 30.7487 17.3103 30.5522 16.6569L30.546 16.6389C30.5372 16.6139 30.5188 16.5646 30.488 16.4926C30.4263 16.3487 30.3145 16.1133 30.1285 15.7989C29.7568 15.171 29.0857 14.2223 27.919 13.0557C26.7525 11.8891 25.8037 11.218 25.1758 10.8463C24.8615 10.6603 24.6262 10.5485 24.4822 10.4868C24.4102 10.456 24.3608 10.4376 24.3358 10.4287L24.3178 10.4225C23.6645 10.2261 23.2882 9.5403 23.4762 8.88215Z" fill="white"/>
</svg>
