<svg width="40" height="40" viewBox="0 0 40 40" fill="none" xmlns="http://www.w3.org/2000/svg">
<path d="M39.9671 18.8204C39.2872 7.22074 28.7486 -1.71907 16.6102 0.280895C8.25123 1.66087 1.5521 8.44069 0.252272 16.8005C-0.507629 21.6404 0.49228 26.2203 2.672 30.0002L0.892208 36.6201C0.49226 38.12 1.87204 39.48 3.35185 39.06L9.87101 37.2601C12.8306 39 16.2902 40 19.9897 40C31.2682 40 40.627 30.0602 39.9671 18.8204ZM29.7684 27.4403C29.5885 27.8002 29.3685 28.1402 29.0885 28.4602C28.5886 29.0002 28.0487 29.4002 27.4487 29.6402C26.8488 29.9002 26.1889 30.0202 25.489 30.0202C24.4691 30.0202 23.3693 29.7804 22.2294 29.2804C21.0696 28.7804 19.9297 28.1202 18.7899 27.3003C17.63 26.4603 16.5502 25.5203 15.5103 24.5003C14.4704 23.4603 13.5505 22.3604 12.7106 21.2204C11.8907 20.0804 11.2308 18.9404 10.7509 17.8004C10.271 16.6605 10.031 15.5606 10.031 14.5206C10.031 13.8406 10.151 13.1806 10.391 12.5806C10.6309 11.9606 11.0109 11.4007 11.5509 10.9007C12.1908 10.2607 12.8906 9.9607 13.6305 9.9607C13.9105 9.9607 14.1904 10.0207 14.4504 10.1407C14.7103 10.2607 14.9504 10.4407 15.1303 10.7007L17.45 13.9806C17.63 14.2406 17.77 14.4606 17.85 14.6806C17.95 14.9006 17.99 15.1006 17.99 15.3006C17.99 15.5405 17.91 15.7806 17.77 16.0205C17.63 16.2605 17.45 16.5005 17.2101 16.7405L16.4502 17.5404C16.3302 17.6604 16.2902 17.7804 16.2902 17.9404C16.2902 18.0204 16.3102 18.1004 16.3302 18.1804C16.3702 18.2604 16.3902 18.3204 16.4102 18.3804C16.5902 18.7204 16.9101 19.1404 17.3501 19.6604C17.81 20.1804 18.2899 20.7204 18.8099 21.2404C19.3498 21.7804 19.8697 22.2604 20.4097 22.7203C20.9296 23.1603 21.3695 23.4603 21.7095 23.6403C21.7695 23.6603 21.8295 23.7003 21.8895 23.7203C21.9695 23.7603 22.0494 23.7603 22.1494 23.7603C22.3294 23.7603 22.4494 23.7003 22.5694 23.5803L23.3293 22.8203C23.5892 22.5603 23.8292 22.3804 24.0492 22.2604C24.2892 22.1204 24.5091 22.0404 24.7691 22.0404C24.9691 22.0404 25.169 22.0804 25.389 22.1804C25.609 22.2804 25.8489 22.4004 26.0889 22.5803L29.4085 24.9403C29.6684 25.1203 29.8484 25.3403 29.9684 25.5803C30.0684 25.8403 30.1284 26.0803 30.1284 26.3603C30.0084 26.7003 29.9284 27.0803 29.7684 27.4403Z" fill="white"/>
</svg>
