<svg width="100" height="100" viewBox="0 0 100 100" fill="none" xmlns="http://www.w3.org/2000/svg">
<g clip-path="url(#clip0_71_55)">
<path d="M77.6775 22.0332C79.7087 22.0332 81.6988 21.4998 83.4428 20.4534L100 10.6668V6.09151L81.3705 16.945C79.9549 17.7657 78.3545 18.1966 76.7337 18.176L52.0722 17.8888C50.8412 17.4374 49.8564 17.1502 49.4871 17.0066C41.7727 15.2831 35.7407 15.9602 31.6373 17.0681C28.5597 17.8888 25.277 17.581 22.3636 16.2474L0 5.98892V46.9819L2.31842 48.254C5.74477 50.1211 8.47353 53.014 10.1764 56.5224L8.86336 57.5892C5.33443 60.1539 4.5753 65.119 6.89372 68.6274C8.18629 70.3303 10.0123 71.4177 12.105 71.787C12.3513 71.8076 12.7206 71.8281 12.9873 71.8281C13.7464 71.8691 14.485 71.787 15.121 71.6844C15.1621 73.4489 15.5724 74.9672 16.6188 76.4034C18.014 78.3525 20.2298 79.2347 22.6098 79.3578C23.2253 79.3988 23.8613 79.4194 24.3537 79.4604C24.128 81.3275 24.6615 83.2355 25.8309 84.7948C27.1235 86.4977 28.9495 87.5851 31.0423 87.9545C31.2885 87.975 31.6578 87.9955 31.9245 87.9955C33.7915 88.0981 35.5765 87.5646 37.0127 86.5183L37.7924 85.9233C37.977 87.0517 38.3053 88.0776 39.0029 89.0008C40.0492 90.437 41.6291 91.4013 43.4961 91.7501C43.7423 91.7706 43.9885 91.7706 44.2552 91.7911C45.753 91.8732 47.2712 91.4423 48.5843 90.5191H48.7074L49.6307 91.8117C51.2515 94.1506 54.6163 94.7046 56.9553 93.0837C58.9044 91.6886 59.684 88.9598 58.8018 86.785L58.9659 87.0312C60.5047 89.3086 63.4181 90.2934 65.9622 89.247C68.7731 88.0981 69.9015 85.0616 69.1629 82.4559C71.0505 84.5691 74.2922 84.9795 76.6311 83.3586L76.7542 83.2355C79.0931 81.6147 79.7702 78.5166 78.5187 76.0546C80.5499 77.9216 83.7915 78.2089 86.1305 76.588C88.8593 74.5979 89.5773 70.7612 87.5872 68.0119L84.6738 63.8469L91.0135 56.4608C92.6754 54.5117 94.6656 52.8703 96.8814 51.5778L100 49.7723V44.8892L95.6914 47.3307C93.2294 48.7259 91.0135 50.5314 89.167 52.6857L82.3554 60.5847C80.3242 58.7177 77.0825 58.4304 74.7435 60.0513C72.0148 62.0414 71.2967 65.8781 73.2868 68.6274L73.3894 68.8941H73.2663C71.3377 67.54 68.7115 67.3964 66.6393 68.7915L66.5162 68.9147C64.6902 70.1867 63.8285 72.4025 64.2183 74.5568L63.5618 75.0287C61.7357 74.0644 59.4789 74.0644 57.6529 75.3365C55.9705 76.506 55.1087 78.5782 55.2524 80.4657L53.4469 81.6147C52.0927 81.2864 50.5745 81.5942 49.405 82.3943C47.9688 83.4407 47.1276 85.1641 47.1686 86.785L46.2659 87.3595C45.7325 87.8314 44.8502 88.0365 44.1116 87.8724C43.373 87.7083 42.6344 87.2979 42.1625 86.6414C41.6906 86.1079 41.4854 85.2257 41.6496 84.4871C41.8137 83.7485 42.224 83.0098 42.8806 82.538L52.6672 75.1723C53.1801 74.8236 53.4674 74.3311 53.4879 73.7156C53.5494 72.5872 52.5851 71.6229 51.4772 71.6229C51.0464 71.6229 50.6976 71.7255 50.3283 71.9306L34.6943 83.2561C33.7915 83.8305 32.7657 84.1588 31.6578 83.9742C30.5499 83.7895 29.565 83.2355 28.9906 82.3328C27.698 80.6299 28.0878 78.0242 29.9138 76.7522L48.5433 63.4571C48.9536 63.0878 49.2409 62.5749 49.2409 61.8978C49.2614 60.8309 48.3792 59.9282 47.3123 59.8872C46.6968 59.8666 46.2043 60.0923 45.794 60.5642L27.5544 73.7567C27.0414 73.9824 26.7747 74.3517 26.3849 74.7004C24.1896 76.0956 20.9479 75.7879 19.7784 74.2286C18.6089 72.5462 18.8552 70.2893 20.3119 68.8736L22.1379 67.6016L42.4087 53.7731C42.9216 53.4243 43.2089 52.9319 43.2294 52.3164C43.2704 51.6393 42.9421 51.0033 42.3882 50.6135C41.6701 50.1005 40.952 50.08 40.1929 50.5314L18.4858 65.2831C18.3422 65.5293 18.096 65.6319 17.9524 65.755L15.8597 67.2733C14.1568 68.5659 11.5511 68.176 10.279 66.35C8.98646 64.6471 9.37628 62.0414 11.2023 60.7694L52.1338 30.6299C55.4165 32.5585 57.8375 36.4362 57.8375 36.4362C61.8588 49.0336 66.865 49.1362 69.9015 47.618C71.4813 46.8383 72.1994 44.9713 71.6455 43.2889C70.0451 38.4263 69.1219 29.009 69.1219 29.009C67.9934 26.5675 64.3824 24.0029 60.3611 21.9101L73.5125 22.1153L77.6775 22.0332Z" fill="black"/>
</g>
<defs>
<clipPath id="clip0_71_55">
<rect width="100" height="100" fill="white"/>
</clipPath>
</defs>
</svg>
