<svg width="100" height="100" viewBox="0 0 100 100" fill="none" xmlns="http://www.w3.org/2000/svg">
<path d="M33.1485 10.5151C37.1562 9.40262 42.9091 8.30687 50.0045 8.31699C57.0949 8.32712 62.8433 9.42216 66.8479 10.5286C68.8504 11.0819 70.4195 11.6388 71.5054 12.0661C72.0487 12.2798 72.4712 12.4612 72.7674 12.5939C72.9158 12.6603 73.0325 12.7145 73.1166 12.7544L73.2187 12.8034L73.2512 12.8194L73.2629 12.8252L73.2679 12.8275C73.2687 12.828 73.2716 12.8295 71.875 15.625L73.2716 12.8295C74.8158 13.6008 75.442 15.4777 74.6704 17.0217C73.9004 18.5631 72.0283 19.1898 70.4858 18.4241C70.4845 18.4235 70.4812 18.4219 70.4799 18.4213L70.4395 18.402C70.395 18.3809 70.3195 18.3456 70.2133 18.2981C70.0008 18.203 69.6666 18.059 69.217 17.8821C68.3175 17.5281 66.9566 17.0428 65.1833 16.5529C61.6358 15.5726 56.4466 14.5762 49.9954 14.567C43.5491 14.5578 38.3646 15.5535 34.8202 16.5374C33.0484 17.0292 31.689 17.5173 30.7904 17.8736C30.3413 18.0517 30.0077 18.1967 29.7958 18.2924C29.6899 18.3402 29.6144 18.3757 29.5702 18.3969L29.5274 18.4176C27.9867 19.1934 26.1115 18.5725 25.3347 17.032C24.5575 15.491 25.1768 13.6117 26.7179 12.8346L28.1249 15.625C26.7179 12.8346 26.7169 12.8351 26.7179 12.8346L26.7266 12.8303L26.7384 12.8244L26.7712 12.8082L26.8735 12.7586C26.9579 12.7182 27.0747 12.6635 27.2231 12.5965C27.5198 12.4624 27.9431 12.2792 28.4868 12.0637C29.5739 11.6326 31.1443 11.0714 33.1485 10.5151Z" fill="#212121"/>
<path d="M28.1251 84.375C26.7327 87.1725 26.7346 87.1738 26.7346 87.1738L26.7413 87.1771L26.753 87.1829L26.7857 87.1988L26.8877 87.2475C26.9719 87.2871 27.0884 87.3413 27.2365 87.4071C27.5327 87.5392 27.9554 87.72 28.4984 87.9329C29.5842 88.3584 31.1529 88.9129 33.1552 89.4642C37.1589 90.5658 42.9063 91.6567 49.9955 91.6667C57.0897 91.6767 62.8417 90.5854 66.8484 89.4775C68.8526 88.9233 70.4226 88.3646 71.5092 87.9354C72.053 87.7204 72.4763 87.5384 72.7726 87.4046C72.9209 87.3379 73.038 87.2834 73.1221 87.2434L73.2247 87.1938L73.2571 87.1775L73.2692 87.1717L73.2738 87.1696C73.2738 87.1696 73.278 87.1675 71.8751 84.375L73.278 87.1675C74.8201 86.3929 75.4422 84.5146 74.6676 82.9721C73.893 81.4304 72.0159 80.8083 70.4742 81.5817L70.4342 81.6008C70.3896 81.6221 70.3142 81.6575 70.2084 81.705C69.9963 81.8004 69.6626 81.945 69.2134 82.1221C68.3147 82.4771 66.9551 82.9638 65.183 83.4538C61.6376 84.4338 56.4522 85.4258 50.0047 85.4167C43.5522 85.4075 38.3621 84.4146 34.8137 83.4379C33.0399 82.95 31.679 82.4667 30.779 82.1138C30.3292 81.9375 29.9951 81.7942 29.7827 81.6992C29.6764 81.6521 29.6007 81.6167 29.5563 81.5958L29.5157 81.5767C27.9709 80.8088 26.0961 81.4379 25.3274 82.9825C24.5584 84.5279 25.1895 86.4046 26.7346 87.1738L28.1251 84.375Z" fill="#212121"/>
<path d="M26.0417 27.0833C20.8641 27.0833 16.6667 31.2806 16.6667 36.4583V63.5417C16.6667 68.7192 20.8641 72.9167 26.0417 72.9167H53.1251C58.3026 72.9167 62.5001 68.7192 62.5001 63.5417V36.4583C62.5001 31.2806 58.3026 27.0833 53.1251 27.0833H26.0417Z" fill="#212121"/>
<path d="M80.2913 68.0258L66.6667 56.6721V43.3333L80.2926 31.9924C81.2243 31.217 82.5205 31.0503 83.618 31.5648C84.7155 32.0793 85.4167 33.1821 85.4167 34.3943V65.625C85.4167 66.8375 84.7155 67.9404 83.6172 68.455C82.5192 68.9692 81.2226 68.8021 80.2913 68.0258Z" fill="#212121"/>
</svg>
