<svg width="100" height="100" viewBox="0 0 100 100" fill="none" xmlns="http://www.w3.org/2000/svg">
<g clip-path="url(#clip0_71_83)">
<path d="M87.3334 0H12.6666C10.8258 0 9.33325 1.49238 9.33325 3.3334V96.6668C9.33325 98.5076 10.8256 100 12.6666 100H87.3333C89.1741 100 90.6666 98.5078 90.6666 96.6668V3.3334C90.6666 1.49238 89.1743 0 87.3334 0ZM84 93.3334H16V6.6666H84V93.3334Z" fill="black"/>
<path d="M50 17.9933C33.9554 17.9933 25.2482 36.8359 35.5554 49.0467V78.6734C35.5554 81.6428 39.1558 83.1205 41.2457 81.0303L50 72.2762L58.7542 81.0305C60.8441 83.1207 64.4445 81.6473 64.4445 78.6736V49.0467C74.7515 36.8367 66.0449 17.9933 50 17.9933ZM57.7777 70.626L52.3568 65.2051C51.055 63.9033 48.9445 63.9033 47.6427 65.2051L42.222 70.626V54.1084C47.2023 56.359 52.9468 56.2916 57.7775 54.1084L57.7777 70.626ZM50 49.1045C43.3003 49.1045 37.7777 43.684 37.7777 36.8822C37.7777 30.143 43.2605 24.6599 50 24.6599C56.7394 24.6599 62.2222 30.1428 62.2222 36.8822C62.2222 43.599 56.7937 49.1045 50 49.1045Z" fill="black"/>
</g>
<defs>
<clipPath id="clip0_71_83">
<rect width="100" height="100" fill="white"/>
</clipPath>
</defs>
</svg>
