<svg width="512" height="163" viewBox="0 0 512 163" fill="none" xmlns="http://www.w3.org/2000/svg">
<path d="M2.12134 117.951V1.59086H48.029C56.8166 1.59086 64.3164 3.16278 70.5283 6.30663C76.7782 9.41259 81.5318 13.8253 84.7893 19.5449C88.0846 25.2265 89.7323 31.9119 89.7323 39.6011C89.7323 47.3281 88.0657 53.9756 84.7325 59.5436C81.3992 65.0738 76.5698 69.3161 70.2443 72.2705C63.9566 75.225 56.3432 76.7022 47.404 76.7022H16.6664V56.9301H43.4269C48.1237 56.9301 52.0251 56.2862 55.1311 54.9983C58.2371 53.7105 60.5476 51.7787 62.0627 49.203C63.6157 46.6274 64.3922 43.4267 64.3922 39.6011C64.3922 35.7375 63.6157 32.4801 62.0627 29.8286C60.5476 27.1772 58.2181 25.1697 55.0743 23.8061C51.9683 22.4046 48.048 21.7039 43.3133 21.7039H26.7229V117.951H2.12134ZM64.9603 64.998L93.8799 117.951H66.7216L38.4271 64.998H64.9603Z" fill="black"/>
<path d="M107.118 117.951V1.59086H185.525V21.8743H131.72V49.6008H181.491V69.8842H131.72V97.6675H185.752V117.951H107.118Z" fill="black"/>
<path d="M307.751 42.3283H282.866C282.411 39.1087 281.483 36.2489 280.082 33.749C278.68 31.2112 276.881 29.0521 274.684 27.2719C272.487 25.4916 269.949 24.128 267.071 23.1811C264.23 22.2342 261.143 21.7607 257.81 21.7607C251.787 21.7607 246.541 23.2569 242.071 26.2492C237.602 29.2037 234.136 33.5217 231.674 39.2034C229.212 44.8471 227.981 51.703 227.981 59.7709C227.981 68.0661 229.212 75.0356 231.674 80.6794C234.174 86.3231 237.659 90.5844 242.128 93.4631C246.598 96.3418 251.768 97.7811 257.639 97.7811C260.934 97.7811 263.984 97.3455 266.787 96.4743C269.627 95.6031 272.146 94.3342 274.343 92.6676C276.54 90.9631 278.358 88.8988 279.798 86.4746C281.275 84.0505 282.297 81.2854 282.866 78.1794L307.751 78.2931C307.107 83.6338 305.497 88.7852 302.922 93.7471C300.384 98.6712 296.956 103.084 292.638 106.985C288.358 110.849 283.244 113.917 277.298 116.19C271.389 118.424 264.703 119.542 257.241 119.542C246.863 119.542 237.583 117.193 229.401 112.497C221.258 107.8 214.818 101.001 210.084 92.0995C205.387 83.1982 203.038 72.422 203.038 59.7709C203.038 47.0819 205.425 36.2868 210.197 27.3855C214.97 18.4843 221.447 11.7042 229.629 7.04524C237.81 2.34841 247.014 0 257.241 0C263.984 0 270.233 0.946941 275.991 2.84082C281.786 4.73471 286.919 7.49977 291.388 11.136C295.858 14.7344 299.494 19.1471 302.297 24.3743C305.138 29.6014 306.956 35.586 307.751 42.3283Z" fill="black"/>
<path d="M379.312 50.1689V69.3729H326.245V50.1689H379.312Z" fill="black"/>
<path d="M420.447 117.951H394.084L434.253 1.59086H465.957L506.069 117.951H479.706L450.559 28.181H449.65L420.447 117.951ZM418.799 72.2137H481.07V91.4177H418.799V72.2137Z" fill="black"/>
<path d="M0 129.95H512" stroke="black"/>
<path d="M1.41772 161.949V147.404H7.15619C8.25464 147.404 9.19211 147.601 9.9686 147.994C10.7498 148.382 11.344 148.934 11.7512 149.649C12.1631 150.359 12.3691 151.194 12.3691 152.156C12.3691 153.121 12.1608 153.952 11.7441 154.648C11.3275 155.34 10.7238 155.87 9.93309 156.239C9.14713 156.609 8.19545 156.793 7.07806 156.793H3.23585V154.322H6.58092C7.16802 154.322 7.6557 154.241 8.04394 154.08C8.43219 153.919 8.72101 153.678 8.91039 153.356C9.10452 153.034 9.20158 152.634 9.20158 152.156C9.20158 151.673 9.10452 151.265 8.91039 150.934C8.72101 150.603 8.42982 150.352 8.03684 150.181C7.6486 150.006 7.15855 149.918 6.56672 149.918H4.49291V161.949H1.41772ZM9.2726 155.33L12.8875 161.949H9.49276L5.95594 155.33H9.2726Z" fill="black"/>
<path d="M30.7418 161.949V147.404H40.5427V149.94H33.817V153.406H40.0384V155.941H33.817V159.414H40.5711V161.949H30.7418Z" fill="black"/>
<path d="M72.0205 152.496H68.9098C68.853 152.094 68.737 151.737 68.5618 151.424C68.3866 151.107 68.1617 150.837 67.8871 150.614C67.6125 150.392 67.2952 150.221 66.9354 150.103C66.5803 149.985 66.1944 149.926 65.7778 149.926C65.0249 149.926 64.3692 150.113 63.8105 150.487C63.2518 150.856 62.8186 151.396 62.5108 152.106C62.2031 152.811 62.0492 153.668 62.0492 154.677C62.0492 155.714 62.2031 156.585 62.5108 157.29C62.8233 157.996 63.2589 158.528 63.8176 158.888C64.3763 159.248 65.0226 159.428 65.7565 159.428C66.1684 159.428 66.5495 159.374 66.8999 159.265C67.255 159.156 67.5698 158.997 67.8445 158.789C68.1191 158.576 68.3463 158.318 68.5263 158.015C68.7109 157.712 68.8388 157.366 68.9098 156.978L72.0205 156.992C71.94 157.66 71.7388 158.304 71.4168 158.924C71.0996 159.539 70.6711 160.091 70.1313 160.579C69.5963 161.062 68.9571 161.445 68.2138 161.729C67.4752 162.008 66.6395 162.148 65.7067 162.148C64.4094 162.148 63.2494 161.855 62.2267 161.268C61.2088 160.68 60.4039 159.831 59.812 158.718C59.2249 157.605 58.9314 156.258 58.9314 154.677C58.9314 153.091 59.2297 151.741 59.8262 150.629C60.4228 149.516 61.2325 148.668 62.2551 148.086C63.2778 147.499 64.4284 147.205 65.7067 147.205C66.5495 147.205 67.3307 147.324 68.0504 147.561C68.7748 147.797 69.4164 148.143 69.9751 148.597C70.5338 149.047 70.9883 149.599 71.3387 150.252C71.6938 150.906 71.921 151.654 72.0205 152.496Z" fill="black"/>
<path d="M90.4252 161.949V147.404H96.1636C97.2621 147.404 98.1996 147.601 98.9761 147.994C99.7573 148.382 100.351 148.934 100.759 149.649C101.171 150.359 101.377 151.194 101.377 152.156C101.377 153.121 101.168 153.952 100.752 154.648C100.335 155.34 99.7312 155.87 98.9405 156.239C98.1546 156.609 97.2029 156.793 96.0855 156.793H92.2433V154.322H95.5884C96.1755 154.322 96.6631 154.241 97.0514 154.08C97.4396 153.919 97.7285 153.678 97.9178 153.356C98.112 153.034 98.209 152.634 98.209 152.156C98.209 151.673 98.112 151.265 97.9178 150.934C97.7285 150.603 97.4373 150.352 97.0443 150.181C96.656 150.006 96.166 149.918 95.5742 149.918H93.5004V161.949H90.4252ZM98.2801 155.33L101.895 161.949H98.5002L94.9634 155.33H98.2801Z" fill="black"/>
<path d="M128.733 147.404H131.809V156.85C131.809 157.911 131.555 158.839 131.049 159.634C130.547 160.429 129.844 161.05 128.939 161.495C128.035 161.935 126.982 162.155 125.779 162.155C124.572 162.155 123.516 161.935 122.611 161.495C121.707 161.05 121.004 160.429 120.502 159.634C120 158.839 119.749 157.911 119.749 156.85V147.404H122.824V156.587C122.824 157.141 122.945 157.634 123.187 158.064C123.433 158.495 123.779 158.834 124.224 159.08C124.669 159.326 125.187 159.449 125.779 159.449C126.375 159.449 126.894 159.326 127.334 159.08C127.779 158.834 128.123 158.495 128.364 158.064C128.61 157.634 128.733 157.141 128.733 156.587V147.404Z" fill="black"/>
<path d="M153.613 147.404V161.949H150.538V147.404H153.613Z" fill="black"/>
<path d="M171.789 149.94V147.404H183.735V149.94H179.282V161.949H176.242V149.94H171.789Z" fill="black"/>
<path d="M201.901 147.404H205.694L209.7 157.177H209.87L213.876 147.404H217.668V161.949H214.685V152.482H214.564L210.8 161.878H208.769L205.005 152.447H204.884V161.949H201.901V147.404Z" fill="black"/>
<path d="M236.401 161.949V147.404H246.202V149.94H239.476V153.406H245.698V155.941H239.476V159.414H246.23V161.949H236.401Z" fill="black"/>
<path d="M277.012 147.404V161.949H274.356L268.028 152.795H267.922V161.949H264.846V147.404H267.545L273.823 156.552H273.951V147.404H277.012Z" fill="black"/>
<path d="M295.199 149.94V147.404H307.144V149.94H302.691V161.949H299.652V149.94H295.199Z" fill="black"/>
<path d="M348.646 161.949H345.351L350.372 147.404H354.335L359.349 161.949H356.054L352.41 150.728H352.297L348.646 161.949ZM348.44 156.232H356.224V158.633H348.44V156.232Z" fill="black"/>
<path d="M386.26 152.106C386.161 151.76 386.021 151.455 385.841 151.19C385.661 150.92 385.441 150.693 385.181 150.508C384.925 150.319 384.632 150.174 384.3 150.075C383.973 149.975 383.611 149.926 383.213 149.926C382.47 149.926 381.817 150.11 381.253 150.479C380.695 150.849 380.259 151.386 379.947 152.092C379.634 152.792 379.478 153.649 379.478 154.663C379.478 155.676 379.632 156.538 379.939 157.248C380.247 157.958 380.683 158.5 381.246 158.874C381.81 159.243 382.475 159.428 383.242 159.428C383.938 159.428 384.532 159.305 385.024 159.059C385.522 158.808 385.9 158.455 386.161 158.001C386.426 157.546 386.559 157.009 386.559 156.388L387.184 156.481H383.434V154.165H389.52V155.998C389.52 157.276 389.25 158.375 388.71 159.293C388.171 160.207 387.427 160.912 386.48 161.41C385.533 161.902 384.449 162.148 383.228 162.148C381.864 162.148 380.666 161.848 379.634 161.246C378.602 160.64 377.797 159.781 377.219 158.668C376.646 157.551 376.36 156.225 376.36 154.691C376.36 153.512 376.53 152.461 376.871 151.538C377.217 150.61 377.7 149.824 378.32 149.18C378.94 148.536 379.662 148.046 380.486 147.71C381.31 147.374 382.203 147.205 383.164 147.205C383.988 147.205 384.755 147.326 385.465 147.568C386.175 147.804 386.805 148.141 387.354 148.576C387.908 149.012 388.36 149.53 388.71 150.131C389.061 150.728 389.286 151.386 389.385 152.106H386.26Z" fill="black"/>
<path d="M408.03 161.949V147.404H417.83V149.94H411.105V153.406H417.326V155.941H411.105V159.414H417.859V161.949H408.03Z" fill="black"/>
<path d="M448.641 147.404V161.949H445.984L439.656 152.795H439.55V161.949H436.475V147.404H439.174L445.452 156.552H445.58V147.404H448.641Z" fill="black"/>
<path d="M480.214 152.496H477.104C477.047 152.094 476.931 151.737 476.756 151.424C476.58 151.107 476.355 150.837 476.081 150.614C475.806 150.392 475.489 150.221 475.129 150.103C474.774 149.985 474.388 149.926 473.972 149.926C473.219 149.926 472.563 150.113 472.004 150.487C471.446 150.856 471.012 151.396 470.705 152.106C470.397 152.811 470.243 153.668 470.243 154.677C470.243 155.714 470.397 156.585 470.705 157.29C471.017 157.996 471.453 158.528 472.011 158.888C472.57 159.248 473.216 159.428 473.95 159.428C474.362 159.428 474.743 159.374 475.094 159.265C475.449 159.156 475.764 158.997 476.038 158.789C476.313 158.576 476.54 158.318 476.72 158.015C476.905 157.712 477.033 157.366 477.104 156.978L480.214 156.992C480.134 157.66 479.933 158.304 479.611 158.924C479.293 159.539 478.865 160.091 478.325 160.579C477.79 161.062 477.151 161.445 476.408 161.729C475.669 162.008 474.833 162.148 473.901 162.148C472.603 162.148 471.443 161.855 470.421 161.268C469.403 160.68 468.598 159.831 468.006 158.718C467.419 157.605 467.125 156.258 467.125 154.677C467.125 153.091 467.423 151.741 468.02 150.629C468.617 149.516 469.426 148.668 470.449 148.086C471.472 147.499 472.622 147.205 473.901 147.205C474.743 147.205 475.525 147.324 476.244 147.561C476.969 147.797 477.61 148.143 478.169 148.597C478.728 149.047 479.182 149.599 479.532 150.252C479.888 150.906 480.115 151.654 480.214 152.496Z" fill="black"/>
<path d="M497.767 147.404H501.211L504.528 153.668H504.67L507.987 147.404H511.431L506.126 156.807V161.949H503.072V156.807L497.767 147.404Z" fill="black"/>
</svg>
