<svg width="100" height="100" viewBox="0 0 100 100" fill="none" xmlns="http://www.w3.org/2000/svg">
<g clip-path="url(#clip0_71_50)">
<path d="M60.951 10.4385C47.033 -3.47949 24.3897 -3.47949 10.4717 10.4385C-3.44646 24.3564 -3.44646 47.0022 10.4717 60.9201C24.3897 74.8381 47.033 74.8381 60.951 60.9201C74.869 47.0022 74.869 24.3564 60.951 10.4385ZM55.9949 55.9641C44.7936 67.1633 26.6291 67.1633 15.4278 55.9619C4.22639 44.7605 4.22639 26.5961 15.4278 15.3969C26.6291 4.19551 44.7914 4.19551 55.9928 15.3969C67.1942 26.5982 67.1963 44.7605 55.9949 55.9641Z" fill="black"/>
<path d="M19.9045 21.9787C14.1707 29.3469 13.6934 39.4848 18.4746 47.3111C18.8412 47.9141 19.6274 48.1018 20.2281 47.7373C20.8268 47.3686 21.0166 46.5844 20.65 45.9838C16.4184 39.0588 16.8402 30.0584 21.9135 23.5471C22.3483 22.993 22.2481 22.192 21.6918 21.7592C21.1381 21.3268 20.3369 21.4248 19.9045 21.9787Z" fill="black"/>
<path d="M97.3719 87.4457L71.4663 62.2113C70.0493 60.8305 67.7866 60.8476 66.3866 62.2453L62.2786 66.3533C60.8809 67.751 60.8657 70.0139 62.2487 71.4287L87.4811 97.3342C90.2831 100.718 94.4229 100.918 97.6212 97.7178C100.824 94.5217 100.753 90.2476 97.3719 87.4457Z" fill="black"/>
</g>
<defs>
<clipPath id="clip0_71_50">
<rect width="100" height="100" fill="white"/>
</clipPath>
</defs>
</svg>
