<svg width="300" height="300" viewBox="0 0 300 300" fill="none" xmlns="http://www.w3.org/2000/svg">
<g clip-path="url(#clip0_169_255)">
<path d="M182.853 31.3154C141.099 -10.4385 73.1689 -10.4385 31.415 31.3154C-10.3395 73.0693 -10.3395 141.006 31.415 182.76C73.1689 224.514 141.099 224.514 182.853 182.76C224.607 141.006 224.607 73.0693 182.853 31.3154ZM167.985 167.892C134.381 201.49 79.8873 201.49 46.2832 167.886C12.6791 134.282 12.6791 79.7883 46.2832 46.1906C79.8873 12.5865 134.374 12.5865 167.978 46.1906C201.582 79.7947 201.589 134.282 167.985 167.892Z" fill="#C8C8C8" fill-opacity="0.3"/>
<path d="M59.7134 65.9361C42.512 88.0406 41.08 118.454 55.4237 141.933C56.5235 143.742 58.8819 144.305 60.6843 143.212C62.4802 142.106 63.0497 139.753 61.9499 137.951C49.255 117.176 50.5206 90.1752 65.7403 70.6412C67.0446 68.9789 66.744 66.576 65.0753 65.2775C63.4142 63.9803 61.0107 64.2744 59.7134 65.9361Z" fill="#C8C8C8" fill-opacity="0.3"/>
<path d="M292.115 262.337L214.398 186.634C210.148 182.491 203.359 182.543 199.159 186.736L186.835 199.06C182.642 203.253 182.597 210.042 186.746 214.286L262.443 292.003C270.849 302.153 283.268 302.754 292.863 293.153C302.47 283.565 302.26 270.743 292.115 262.337Z" fill="#C8C8C8" fill-opacity="0.3"/>
</g>
<defs>
<clipPath id="clip0_169_255">
<rect width="300" height="300" fill="white"/>
</clipPath>
</defs>
</svg>
