<svg width="100" height="100" viewBox="0 0 100 100" fill="none" xmlns="http://www.w3.org/2000/svg">
<path d="M75.2901 0H24.7095C16.6929 0.0015625 10.1993 6.49531 10.1978 14.5133V85.4883C10.1993 93.5016 16.6929 99.9967 24.7095 100H75.2899C83.3065 99.9967 89.8001 93.5018 89.8017 85.4883V14.5133C89.8003 6.49531 83.3067 0.0015625 75.2901 0ZM83.3036 85.4883C83.302 87.7109 82.4118 89.6941 80.9571 91.1537C79.496 92.6102 77.5128 93.4984 75.2901 93.5018H24.7095C22.4868 93.4984 20.5036 92.6102 19.0425 91.1537C17.5876 89.6941 16.6976 87.7109 16.696 85.4883V14.5133C16.6976 12.2891 17.5876 10.3059 19.0425 8.84473C20.5036 7.38984 22.4851 6.5 24.7095 6.49824H75.2899C77.5144 6.4998 79.4958 7.38984 80.9569 8.84473C82.4116 10.3061 83.3019 12.2891 83.3034 14.5133V85.4883H83.3036Z" fill="black"/>
<path d="M50.0014 22.4348C40.0842 22.4348 32.0502 30.4703 32.0471 40.3859C32.0502 50.3031 40.0842 58.3371 50.0014 58.3387C59.9155 58.3371 67.9526 50.3031 67.9526 40.3859C67.9526 30.4703 59.9155 22.4348 50.0014 22.4348ZM39.4909 29.8769C41.0393 28.3285 42.9256 27.1228 45.026 26.3771C44.0217 27.5955 43.1793 29.1599 42.5225 30.9621H38.5071C38.8133 30.5846 39.145 30.2226 39.4909 29.8769ZM37.3649 32.5566H42.0071C41.4122 34.6746 41.0551 37.059 40.9885 39.5896H35.1549C35.293 37.0144 36.0846 34.6174 37.3649 32.5566ZM35.1549 41.1822H40.9963C41.0614 43.7142 41.4073 46.0971 42.0069 48.2168H37.3647C36.0846 46.1543 35.293 43.7588 35.1549 41.1822ZM39.4909 50.8963C39.145 50.5504 38.8133 50.1855 38.5073 49.8096H42.5227C42.8114 50.5932 43.1225 51.331 43.4762 52.0115C43.9364 52.9062 44.4536 53.7029 45.0247 54.3961C42.9225 53.649 41.0377 52.4463 39.4909 50.8963ZM49.2065 55.2291C48.9559 55.2164 48.71 55.1975 48.4608 55.1752C48.0721 54.9975 47.6834 54.7596 47.2995 54.4455C46.1319 53.4904 45.0483 51.8769 44.2217 49.8098H49.2065V55.2291ZM49.2065 48.2168H43.668C43.0381 46.148 42.6495 43.7492 42.5844 41.1822H49.2065V48.2168ZM49.2065 39.5894H42.5877C42.6528 37.0224 43.0448 34.6236 43.676 32.5564H49.2065V39.5894ZM49.2065 30.9621H44.2313C44.436 30.4465 44.6534 29.9469 44.8897 29.4898C45.5973 28.1223 46.427 27.0402 47.2995 26.3264C47.6834 26.0154 48.0721 25.7775 48.4608 25.5998C48.7098 25.5777 48.9557 25.5586 49.2065 25.5443V30.9621ZM64.8448 39.5894H59.0032C58.9413 37.0605 58.5922 34.6744 57.9958 32.5564H62.6346C63.9149 34.6174 64.7098 37.0144 64.8448 39.5894ZM60.5135 29.8769C60.8592 30.2228 61.1862 30.5846 61.4971 30.9621H57.477C57.193 30.1816 56.8772 29.4391 56.5235 28.76C56.0665 27.8683 55.5477 27.0687 54.9782 26.3771C57.0788 27.126 58.9635 28.3285 60.5135 29.8769ZM50.7979 25.5441C51.0469 25.5584 51.2928 25.5775 51.5387 25.5996C51.9274 25.7773 52.3161 26.0152 52.7001 26.3262C53.8692 27.2797 54.9561 28.8932 55.7778 30.9619H50.7977V25.5441H50.7979ZM50.7979 32.5566H56.3315C56.9645 34.6238 57.35 37.0226 57.4198 39.5896H50.7977V32.5566H50.7979ZM50.7979 41.1822H57.412C57.3438 43.7525 56.9551 46.148 56.3284 48.2168H50.7979V41.1822ZM52.7001 54.4453C52.3161 54.7594 51.9274 54.9973 51.5387 55.175C51.2928 55.1973 51.0469 55.2162 50.7979 55.2289V49.8096H55.77C55.5637 50.3267 55.3479 50.8279 55.1131 51.2818C54.4055 52.6512 53.5727 53.7314 52.7001 54.4453ZM60.5135 50.8963C58.962 52.4463 57.0772 53.649 54.9735 54.3961C55.9825 53.176 56.8202 51.615 57.477 49.8096H61.4971C61.1862 50.1855 60.8594 50.5504 60.5135 50.8963ZM62.6346 48.2168H57.9924C58.5874 46.0973 58.9444 43.7142 59.011 41.1822H64.8446C64.7098 43.7588 63.9149 46.1543 62.6346 48.2168Z" fill="black"/>
<path d="M32.8324 68.2939H27.6891L27.4922 68.4891V81.3477L27.6891 81.5428H30.1639L30.3574 81.3477V76.9244L30.4748 76.8086H32.8322C35.6975 76.8086 37.449 75.0539 37.449 72.56C37.4492 70.0279 35.7168 68.2939 32.8324 68.2939ZM32.658 74.3338H30.475L30.3576 74.2162V70.8846L30.475 70.7672H32.658C33.8637 70.7672 34.5871 71.4891 34.5871 72.56C34.5871 73.6324 33.8637 74.3338 32.658 74.3338Z" fill="black"/>
<path d="M45.5623 68.2939H43.1064L42.8525 68.4891L38.293 81.3477L38.4293 81.5428H40.9836L41.2344 81.3477L41.977 79.0297H46.6127L47.3742 81.3477L47.6281 81.5428H50.1602L50.2965 81.3477L45.8162 68.4891L45.5623 68.2939ZM42.7766 76.5945L44.2742 71.9572H44.3346L45.8353 76.5945H42.7766Z" fill="black"/>
<path d="M57.3374 73.5738L56.6329 73.477C55.1163 73.2611 54.5704 72.7742 54.5704 72.0141C54.5704 71.1766 55.1733 70.5736 56.3409 70.5736C57.4323 70.5736 58.4065 70.9242 59.4218 71.5859L59.6946 71.5272L60.8814 69.7551L60.8433 69.4633C59.7327 68.6051 58.0954 68.0799 56.3409 68.0799C53.4788 68.0799 51.6448 69.6965 51.6448 72.1318C51.6448 74.4703 53.1456 75.7365 55.8364 76.1076L56.5376 76.2043C58.1146 76.4186 58.5841 76.9057 58.5841 77.6846C58.5841 78.6205 57.8036 79.2631 56.42 79.2631C55.0175 79.2631 53.8276 78.6014 52.9521 77.8986L52.6601 77.9193L51.1782 79.6139L51.1974 79.9455C52.2317 80.9387 54.237 81.7572 56.3026 81.7572C59.7327 81.7572 61.5063 79.9852 61.5063 77.5879C61.5067 75.1904 60.063 73.9434 57.3374 73.5738Z" fill="black"/>
<path d="M68.9348 73.5738L68.2336 73.477C66.7137 73.2611 66.168 72.7742 66.168 72.0141C66.168 71.1766 66.7709 70.5736 67.9416 70.5736C69.0332 70.5736 70.0072 70.9242 71.0193 71.5859L71.2922 71.5272L72.482 69.7551L72.4408 69.4633C71.3303 68.6051 69.6963 68.0799 67.9416 68.0799C65.0764 68.0799 63.2455 69.6965 63.2455 72.1318C63.2455 74.4703 64.7463 75.7365 67.4338 76.1076L68.135 76.2043C69.7152 76.4186 70.1816 76.9057 70.1816 77.6846C70.1816 78.6205 69.401 79.2631 68.0178 79.2631C66.6152 79.2631 65.4285 78.6014 64.5496 77.8986L64.2578 77.9192L62.7793 79.6137L62.7984 79.9453C63.8297 80.9385 65.8383 81.757 67.9039 81.757C71.3307 81.757 73.1043 79.985 73.1043 77.5877C73.1041 75.1904 71.6635 73.9434 68.9348 73.5738Z" fill="black"/>
</svg>
